<svg width="400" height="290" viewBox="0 0 400 290" fill="none" xmlns="http://www.w3.org/2000/svg">
<g filter="url(#filter0_d_419_291)">
<path d="M250.46 33.1343C248.806 34.5363 246.451 34.6765 244.6 33.583C202.343 8.68499 141.86 34.8166 147.888 92.5755C151.87 126.165 183.304 149.465 217.261 143.381C227.243 141.586 236.608 138.334 244.74 132.334C249.647 128.689 251.526 132.39 253.797 135.081C256.657 138.474 253.18 139.988 251.189 141.502C226.654 160.036 190.482 160.568 165.666 142.848C92.7609 84.2201 167.517 -22.774 249.367 23.7415C256.405 27.1342 254.47 29.7417 250.488 33.1343H250.46Z" fill="#16222E"/>
<path d="M228.28 108.698C198.053 130.26 159.609 95.7445 183.079 65.2949C191.463 55.0609 202.651 51.9207 215.466 54.8086C222.897 55.818 237.281 63.6126 225.196 69.9773C224.102 70.5381 221.943 69.781 220.681 69.024C208.904 61.0051 190.089 65.5473 187.173 80.5477C182.771 97.4268 204.895 111.053 218.747 100.763H219.083C220.962 99.782 224.719 98.4642 225.953 99.2212C228.252 100.735 232.15 102.418 230.411 106.735C229.738 107.436 229.037 108.081 228.308 108.726L228.28 108.698Z" fill="#16222E"/>
<path d="M238.095 125.381C190.987 158.915 133.952 103.259 165.834 55.2016C180.724 32.5466 213.587 27.9203 236.356 41.4067C243.815 44.4629 238.347 53.5193 231.701 50.7435C213.503 40.145 190.033 41.9395 175.817 58.1736C155.964 81.4734 169.311 120.25 199.707 125.241C211.372 127.064 221.663 122.858 231.561 117.138C238.123 113.773 244.908 120.278 238.095 125.381Z" fill="#52B5D4"/>
<path d="M106.608 232.299C105.879 232.411 105.066 232.383 104.252 232.383C98.2517 232.383 92.3072 232.383 86.1102 232.383C92.7839 232.131 99.4575 232.299 106.608 232.327V232.299Z" fill="#1D2732"/>
<path d="M106.075 226.162H103.916C104.645 226.162 105.402 226.106 106.075 226.162Z" fill="#1D2732"/>
<path d="M81.4837 230.063C81.2313 229.362 81.1471 228.465 81.1752 227.344C81.2312 224.035 81.2593 220.726 81.2874 217.418C81.2874 220.811 81.2874 224.231 81.3154 227.624C81.3154 228.409 81.3715 229.222 81.4837 230.063Z" fill="#1D2732"/>
<path d="M69.0065 273.626C68.0531 274.102 67.1277 274.439 66.2024 274.635C65.2771 274.831 64.2957 274.944 63.2301 274.944C60.2578 274.944 57.9305 274.046 56.2761 272.252C54.6217 270.457 53.7804 268.102 53.7804 265.158C53.7804 261.962 54.7058 259.438 56.5565 257.532C58.4072 255.625 60.8186 254.672 63.7909 254.672C64.7443 254.672 65.6136 254.756 66.4548 254.924C67.296 255.092 68.1091 255.373 68.9503 255.765L68.025 257.812C67.324 257.504 66.623 257.251 65.9501 257.111C65.2771 256.971 64.548 256.887 63.7628 256.887C61.5196 256.887 59.7531 257.616 58.4072 259.074C57.0612 260.532 56.3883 262.495 56.3883 264.99C56.3883 267.345 57.0332 269.224 58.295 270.626C59.5568 272.028 61.2673 272.7 63.3984 272.7C64.1835 272.7 64.9405 272.616 65.6976 272.42C66.4547 272.224 67.2118 271.943 67.9689 271.551L68.9784 273.57L69.0065 273.626Z" fill="#231F20"/>
<path d="M94.0466 274.944C91.2706 274.944 89.0273 274.018 87.3449 272.196C85.6625 270.373 84.8213 267.962 84.8213 265.046C84.8213 261.906 85.6906 259.382 87.401 257.504C89.1115 255.625 91.4388 254.672 94.3831 254.672C97.103 254.672 99.2902 255.597 100.973 257.42C102.655 259.242 103.468 261.625 103.468 264.597C103.468 267.794 102.599 270.317 100.888 272.196C99.178 274.074 96.9067 275 94.0466 275V274.944ZM94.0466 272.7C96.1496 272.7 97.804 272 99.0097 270.654C100.215 269.308 100.804 267.345 100.804 264.878C100.804 262.41 100.215 260.392 99.0378 258.99C97.8601 257.588 96.2337 256.915 94.1868 256.915C92.1398 256.915 90.5415 257.644 89.3077 259.102C88.074 260.56 87.429 262.467 87.429 264.85C87.429 267.233 88.046 269.14 89.2517 270.57C90.4574 272 92.0557 272.729 94.0466 272.729V272.7Z" fill="#231F20"/>
<path d="M137.509 274.634H134.537L124.611 259.297C124.47 259.073 124.358 258.876 124.246 258.652C124.134 258.428 124.022 258.232 123.966 258.035H123.882C123.91 258.26 123.938 258.596 123.966 259.045C123.994 259.493 123.966 260.082 123.966 260.783V274.662H121.498V255.035H124.639L134.285 270.12C134.481 270.428 134.649 270.709 134.789 270.933C134.929 271.157 135.014 271.325 135.098 271.466H135.154C135.098 271.185 135.07 270.821 135.042 270.344C135.014 269.867 135.014 269.279 135.014 268.606V255.063H137.481V274.69L137.509 274.634Z" fill="#231F20"/>
<path d="M155.315 273.094L156.521 271.187C157.334 271.748 158.147 272.14 158.932 272.365C159.717 272.589 160.643 272.729 161.68 272.729C162.858 272.729 163.811 272.449 164.568 271.916C165.325 271.383 165.69 270.57 165.69 269.533C165.69 268.608 165.382 267.851 164.737 267.29C164.092 266.729 163.054 266.196 161.624 265.692C159.745 265.047 158.343 264.29 157.474 263.449C156.605 262.607 156.128 261.486 156.128 260.084C156.128 258.486 156.717 257.168 157.867 256.159C159.016 255.149 160.587 254.645 162.493 254.645C163.391 254.645 164.26 254.757 165.129 254.953C165.998 255.149 166.868 255.486 167.737 255.906L166.727 257.897C165.998 257.532 165.297 257.252 164.596 257.084C163.895 256.916 163.138 256.832 162.353 256.832C161.203 256.832 160.306 257.112 159.633 257.645C158.96 258.177 158.624 258.934 158.624 259.86C158.624 260.701 158.932 261.346 159.549 261.85C160.166 262.355 161.175 262.832 162.634 263.364C164.624 264.037 166.054 264.822 166.924 265.72C167.793 266.617 168.214 267.794 168.214 269.309C168.214 270.935 167.625 272.281 166.475 273.346C165.325 274.412 163.671 274.944 161.54 274.944C160.362 274.944 159.297 274.804 158.287 274.496C157.278 274.187 156.296 273.739 155.343 273.094H155.315Z" fill="#231F20"/>
<path d="M200.796 266.62C200.796 269.396 200.18 271.499 198.918 272.873C197.656 274.247 195.777 274.948 193.254 274.948C190.73 274.948 189.047 274.275 187.842 272.957C186.636 271.639 186.047 269.62 186.047 266.929V254.984H188.543V266.788C188.543 268.751 188.963 270.237 189.777 271.219C190.59 272.2 191.852 272.705 193.506 272.705C195.16 272.705 196.31 272.228 197.123 271.275C197.936 270.321 198.329 268.891 198.329 266.985V254.984H200.824V266.62H200.796Z" fill="#231F20"/>
<path d="M230.239 274.631H219.92V255.004H222.416V272.416H230.239V274.631Z" fill="#231F20"/>
<path d="M257.41 257.219H251.746V274.631H249.251V257.219H243.586V255.004H257.41V257.219Z" fill="#231F20"/>
<path d="M277.263 274.631H274.767V255.004H277.263V274.631Z" fill="#231F20"/>
<path d="M312.65 274.634H309.678L299.751 259.297C299.611 259.073 299.499 258.876 299.387 258.652C299.275 258.456 299.163 258.232 299.078 258.035H298.994C299.022 258.26 299.05 258.596 299.078 259.045C299.106 259.493 299.078 260.082 299.078 260.783V274.662H296.611V255.035H299.751L309.397 270.12C309.594 270.428 309.762 270.709 309.902 270.933C310.042 271.157 310.126 271.325 310.21 271.466H310.266C310.21 271.185 310.182 270.821 310.154 270.344C310.154 269.867 310.126 269.279 310.126 268.606V255.063H312.594V274.69L312.65 274.634Z" fill="#231F20"/>
<path d="M346.859 273.261C345.878 273.822 344.84 274.243 343.719 274.523C342.597 274.803 341.448 274.944 340.214 274.944C337.298 274.944 334.998 274.074 333.288 272.364C331.577 270.654 330.736 268.214 330.736 265.074C330.736 261.934 331.689 259.382 333.568 257.504C335.447 255.625 337.914 254.672 340.887 254.672C342.008 254.672 343.018 254.784 343.971 255.008C344.897 255.233 345.85 255.597 346.803 256.074L345.794 258.093C344.981 257.672 344.196 257.364 343.438 257.195C342.681 257.027 341.812 256.915 340.887 256.915C338.7 256.915 336.877 257.616 335.475 259.018C334.073 260.42 333.372 262.382 333.372 264.934C333.372 267.485 333.989 269.476 335.251 270.794C336.512 272.112 338.251 272.785 340.494 272.785C341.223 272.785 341.924 272.7 342.569 272.56C343.214 272.42 343.803 272.196 344.336 271.915V266.588H340.074V264.373H346.859V273.345V273.261Z" fill="#231F20"/>
<path d="M353.616 233.366C339.035 233.366 327.903 222.543 327.847 208.243C327.763 193.327 338.839 182.28 353.925 182.196C368.646 182.112 380.086 193.187 380.114 207.57C380.17 222.01 368.506 233.366 353.616 233.394V233.366ZM353.728 188.785C343.045 188.869 335.222 197.084 335.25 208.131C335.278 218.842 343.185 226.861 353.728 226.861C364.468 226.861 372.824 218.197 372.599 207.262C372.403 196.86 364.075 188.729 353.728 188.813V188.785Z" fill="#1D2732"/>
<path d="M303.003 213.435C305.415 216.828 307.602 219.856 309.761 222.912C311.808 225.772 313.827 228.66 316.098 231.856C310.995 233.51 307.686 232.585 305.218 228.295C303.171 224.734 300.339 221.622 298.32 218.061C296.105 214.136 293.161 212.986 288.618 214.416V232.052H281.496V183.069C287.665 183.069 293.806 182.565 299.863 183.182C307.854 184.023 313.406 189.602 314.247 196.444C315.229 204.294 311.948 209.51 303.003 213.435ZM288.646 207.911C295.264 206.902 302.695 209.874 306.116 202.332C307.265 199.78 306.704 195.21 305.05 192.883C300.928 187.023 294.423 189.266 288.646 189.07V207.911Z" fill="#16222E"/>
<path d="M65.9491 222.964C58.0417 236.142 36.114 236.759 26.2718 224.282C18.3925 214.3 19.2337 198.627 28.1225 189.739C37.1235 180.739 51.9569 179.673 62.0234 187.58C63.4815 188.729 65.0798 191.758 64.5471 192.935C63.0048 196.216 60.6494 195.375 58.0136 193.188C50.2183 186.767 39.8994 187.412 33.3941 194.365C26.44 201.767 26.2718 214.02 33.0576 221.114C39.7593 228.151 50.4988 228.88 58.2099 222.291C61.3224 219.656 63.3694 219.544 65.9771 222.936L65.9491 222.964Z" fill="#1D2732"/>
<path d="M265.149 192.511L263.494 194.305C262.765 195.09 261.531 195.203 260.69 194.558C259.653 193.745 258.671 192.988 257.634 192.287C249.446 186.679 238.566 188.053 232.509 195.427C226.284 203.025 226.733 215.11 233.491 221.895C239.968 228.372 250.764 228.624 258.447 222.54C259.597 221.615 260.971 220.269 262.176 220.325C263.438 220.381 265.261 221.727 265.625 222.876C265.934 223.886 264.812 225.708 263.831 226.662C251.156 239.391 227.434 233.447 222.135 216.287C218.742 205.268 222.611 193.324 231.696 186.931C240.501 180.735 253.428 180.847 262.204 187.24C263.13 187.913 263.999 188.726 265.008 189.651C265.822 190.408 265.878 191.698 265.121 192.511H265.149Z" fill="#1D2732"/>
<path d="M81.4834 185.137C81.3713 186.006 81.3152 186.791 81.3152 187.604C81.2872 190.997 81.2871 194.389 81.2871 197.782C81.2591 194.473 81.231 191.165 81.175 187.856C81.1469 186.735 81.2311 185.838 81.4834 185.137Z" fill="#1D2732"/>
<path d="M106.608 182.927C99.4572 182.927 92.7836 183.123 86.11 182.843C92.3069 182.843 98.2795 182.871 104.252 182.843C105.065 182.843 105.907 182.815 106.608 182.927Z" fill="#1D2732"/>
<path d="M108.711 229.103C108.795 230.617 108.402 231.43 107.729 231.879C107.421 232.075 107.028 232.215 106.608 232.299C99.4574 232.271 92.7837 232.103 86.1101 232.355H85.4932C83.1659 232.355 81.9601 231.682 81.4835 230.056C81.3713 229.215 81.3152 228.402 81.3152 227.617C81.2872 224.224 81.2872 220.804 81.2872 217.411C81.3152 210.878 81.3152 204.317 81.2872 197.784C81.2872 194.392 81.2872 190.999 81.3152 187.606C81.3152 186.793 81.3713 186.008 81.4835 185.139C81.9601 183.485 83.1939 182.84 85.5773 182.84H86.1101C92.7837 183.12 99.4574 182.952 106.608 182.924C107.028 183.008 107.421 183.148 107.729 183.345C108.402 183.793 108.795 184.606 108.711 186.092C108.655 187.382 108.262 188.111 107.729 188.532C107.281 188.896 106.748 189.036 106.131 189.064H88.6618V204.233C93.0922 204.233 97.5225 204.205 101.925 204.261C104.252 204.261 107 203.532 106.916 207.485V207.738C107 211.663 104.252 210.934 101.925 210.962C97.5225 210.962 93.0922 210.962 88.6618 210.962V226.159H106.075C106.692 226.187 107.281 226.327 107.729 226.692C108.29 227.112 108.655 227.841 108.711 229.103Z" fill="#1D2732"/>
<path d="M153.071 233.281L151.164 230.87L136.19 205.075L135.602 205.187C134.368 214.187 133.134 223.159 131.9 232.272H125.199L131.143 194.28L132.012 188.812L132.068 188.476L132.798 183.766L138.069 193.046V193.186C142.219 200.897 146.201 208.664 150.267 216.374C150.94 217.636 151.753 218.813 152.846 220.608C153.744 218.897 154.613 217.187 155.454 215.477C159.464 207.738 163.277 200.252 167.203 192.822C167.371 192.485 167.54 192.177 167.708 191.841V191.784L171.353 183.766L171.718 182.98L171.886 183.681H171.914L171.998 184.074L173.456 189.654V189.738L173.568 190.439L173.765 191.644L174.269 194.925L180.018 231.711L180.13 232.412L173.568 233.449L169.026 204.514L168.942 204.009C167.792 206 166.951 207.402 166.194 208.832C163.866 213.346 161.595 217.888 159.24 222.402L156.688 227.085L155.37 229.468L155.314 229.552" fill="#1D2732"/>
<path d="M204.749 183.484H197.992V232.888H204.749V183.484Z" fill="#1D2732"/>
</g>
<defs>
<filter id="filter0_d_419_291" x="20.8686" y="12.3359" width="367.246" height="272.664" filterUnits="userSpaceOnUse" color-interpolation-filters="sRGB">
<feFlood flood-opacity="0" result="BackgroundImageFix"/>
<feColorMatrix in="SourceAlpha" type="matrix" values="0 0 0 0 0 0 0 0 0 0 0 0 0 0 0 0 0 0 127 0" result="hardAlpha"/>
<feOffset dx="4" dy="6"/>
<feGaussianBlur stdDeviation="2"/>
<feComposite in2="hardAlpha" operator="out"/>
<feColorMatrix type="matrix" values="0 0 0 0 0 0 0 0 0 0 0 0 0 0 0 0 0 0 0.25 0"/>
<feBlend mode="normal" in2="BackgroundImageFix" result="effect1_dropShadow_419_291"/>
<feBlend mode="normal" in="SourceGraphic" in2="effect1_dropShadow_419_291" result="shape"/>
</filter>
</defs>
</svg>
