<svg width="600" height="178" viewBox="0 0 600 178" fill="none" xmlns="http://www.w3.org/2000/svg">
<path d="M141.257 26.4991C139.229 28.2179 136.341 28.3898 134.072 27.0492C82.2648 -3.47612 8.11145 28.5617 15.5027 99.3749C20.3844 140.556 58.9222 169.122 100.554 161.663C112.793 159.463 124.275 155.475 134.244 148.119C140.261 143.65 142.564 148.188 145.348 151.488C148.855 155.647 144.592 157.504 142.151 159.36C112.071 182.082 67.7229 182.735 37.2984 161.01C-52.0845 89.131 39.5673 -42.0452 139.917 14.9834C148.546 19.1428 146.174 22.3397 141.292 26.4991H141.257Z" fill="#16222E"/>
<path d="M114.064 119.148C77.0044 145.583 29.8722 103.267 58.6466 65.9353C68.9256 53.3884 82.6424 49.5383 98.3532 53.079C107.463 54.3165 125.099 63.8728 110.282 71.676C108.942 72.3635 106.294 71.4354 104.747 70.5073C90.3087 60.6759 67.241 66.2447 63.6657 84.6355C58.2684 105.329 85.3927 122.036 102.375 109.42H102.788C105.091 108.217 109.698 106.601 111.211 107.529C114.03 109.386 118.808 111.448 116.677 116.742C115.852 117.601 114.992 118.392 114.098 119.183L114.064 119.148Z" fill="#16222E"/>
<path d="M126.096 139.607C68.3413 180.72 -1.58362 112.485 37.5042 53.5655C55.7589 25.7903 96.05 20.1183 123.965 36.6529C133.109 40.3998 126.406 51.503 118.258 48.0999C95.9468 35.106 67.1724 37.306 49.7428 57.2093C25.4032 85.7752 41.7671 133.316 79.0328 139.435C93.3341 141.669 105.951 136.513 118.086 129.501C126.131 125.376 134.45 133.351 126.096 139.607Z" fill="#52B5D4"/>
<path d="M263.677 93.5062C262.783 93.6437 261.786 93.6093 260.789 93.6093C253.432 93.6093 246.144 93.6093 238.547 93.6093C246.729 93.2999 254.911 93.5062 263.677 93.5405V93.5062Z" fill="#1D2732"/>
<path d="M263.023 85.9798H260.376C261.27 85.9798 262.198 85.911 263.023 85.9798Z" fill="#1D2732"/>
<path d="M232.874 90.7455C232.565 89.8861 232.461 88.7861 232.496 87.4111C232.564 83.3548 232.599 79.2985 232.633 75.2422C232.633 79.4016 232.633 83.5954 232.668 87.7548C232.668 88.7173 232.736 89.7142 232.874 90.7455Z" fill="#1D2732"/>
<path d="M195.059 144.175C193.89 144.76 192.755 145.172 191.621 145.413C190.487 145.653 189.283 145.791 187.977 145.791C184.333 145.791 181.479 144.691 179.451 142.491C177.423 140.291 176.391 137.403 176.391 133.794C176.391 129.875 177.526 126.781 179.795 124.444C182.064 122.106 185.02 120.938 188.664 120.938C189.833 120.938 190.899 121.041 191.93 121.247C192.962 121.453 193.959 121.797 194.99 122.278L193.856 124.788C192.996 124.409 192.137 124.1 191.312 123.928C190.487 123.756 189.593 123.653 188.63 123.653C185.88 123.653 183.714 124.547 182.064 126.334C180.414 128.122 179.589 130.528 179.589 133.588C179.589 136.475 180.379 138.778 181.926 140.497C183.473 142.216 185.57 143.041 188.183 143.041C189.146 143.041 190.074 142.938 191.002 142.697C191.93 142.456 192.859 142.113 193.787 141.631L195.024 144.106L195.059 144.175Z" fill="#231F20"/>
<path d="M225.758 145.791C222.355 145.791 219.604 144.656 217.542 142.422C215.479 140.188 214.448 137.231 214.448 133.656C214.448 129.806 215.513 126.713 217.61 124.409C219.708 122.106 222.561 120.938 226.171 120.938C229.505 120.938 232.187 122.072 234.249 124.306C236.312 126.541 237.309 129.463 237.309 133.106C237.309 137.025 236.243 140.119 234.146 142.422C232.049 144.725 229.265 145.86 225.758 145.86V145.791ZM225.758 143.041C228.336 143.041 230.365 142.181 231.843 140.531C233.321 138.881 234.043 136.475 234.043 133.45C234.043 130.425 233.321 127.95 231.877 126.231C230.433 124.513 228.439 123.688 225.93 123.688C223.42 123.688 221.461 124.581 219.948 126.369C218.436 128.156 217.645 130.494 217.645 133.416C217.645 136.338 218.401 138.675 219.879 140.428C221.358 142.181 223.317 143.075 225.758 143.075V143.041Z" fill="#231F20"/>
<path d="M279.044 145.431H275.4L263.23 126.627C263.058 126.352 262.92 126.112 262.783 125.837C262.645 125.562 262.508 125.321 262.439 125.081H262.336C262.37 125.356 262.405 125.768 262.439 126.318C262.473 126.868 262.439 127.59 262.439 128.449V145.465H259.414V121.402H263.264L275.09 139.896C275.331 140.274 275.537 140.618 275.709 140.893C275.881 141.168 275.984 141.374 276.087 141.546H276.156C276.087 141.203 276.053 140.756 276.018 140.171C275.984 139.587 275.984 138.865 275.984 138.04V121.437H279.009V145.499L279.044 145.431Z" fill="#231F20"/>
<path d="M300.874 143.533L302.353 141.195C303.35 141.883 304.346 142.364 305.309 142.639C306.272 142.914 307.406 143.086 308.678 143.086C310.122 143.086 311.291 142.742 312.219 142.089C313.147 141.436 313.594 140.439 313.594 139.167C313.594 138.033 313.216 137.105 312.425 136.417C311.635 135.73 310.363 135.077 308.609 134.458C306.306 133.667 304.587 132.739 303.521 131.708C302.456 130.677 301.871 129.302 301.871 127.583C301.871 125.623 302.593 124.008 304.003 122.77C305.412 121.533 307.337 120.914 309.675 120.914C310.775 120.914 311.841 121.052 312.907 121.292C313.972 121.533 315.038 121.945 316.104 122.461L314.866 124.902C313.972 124.455 313.113 124.111 312.254 123.905C311.394 123.698 310.466 123.595 309.503 123.595C308.094 123.595 306.994 123.939 306.169 124.592C305.343 125.245 304.931 126.173 304.931 127.308C304.931 128.339 305.309 129.13 306.065 129.749C306.822 130.367 308.059 130.952 309.847 131.605C312.288 132.43 314.041 133.392 315.107 134.492C316.173 135.592 316.688 137.036 316.688 138.892C316.688 140.886 315.966 142.536 314.557 143.842C313.147 145.149 311.119 145.802 308.506 145.802C307.062 145.802 305.756 145.63 304.518 145.252C303.281 144.874 302.078 144.324 300.909 143.533H300.874Z" fill="#231F20"/>
<path d="M356.636 135.59C356.636 138.993 355.88 141.571 354.333 143.256C352.786 144.94 350.483 145.799 347.389 145.799C344.295 145.799 342.232 144.974 340.754 143.359C339.275 141.743 338.554 139.268 338.554 135.968V121.324H341.613V135.796C341.613 138.202 342.129 140.024 343.126 141.228C344.123 142.431 345.67 143.049 347.698 143.049C349.726 143.049 351.136 142.465 352.133 141.296C353.13 140.128 353.611 138.374 353.611 136.037V121.324H356.671V135.59H356.636Z" fill="#231F20"/>
<path d="M392.733 145.414H380.081V121.352H383.141V142.699H392.733V145.414Z" fill="#231F20"/>
<path d="M426.045 124.067H419.101V145.414H416.041V124.067H409.097V121.352H426.045V124.067Z" fill="#231F20"/>
<path d="M450.384 145.414H447.325V121.352H450.384V145.414Z" fill="#231F20"/>
<path d="M493.769 145.431H490.125L477.955 126.627C477.783 126.352 477.646 126.112 477.508 125.837C477.371 125.596 477.233 125.321 477.13 125.081H477.027C477.061 125.356 477.096 125.768 477.13 126.318C477.164 126.868 477.13 127.59 477.13 128.449V145.465H474.105V121.402H477.955L489.781 139.896C490.022 140.274 490.228 140.618 490.4 140.893C490.572 141.168 490.675 141.374 490.778 141.546H490.847C490.778 141.203 490.744 140.756 490.709 140.171C490.709 139.587 490.675 138.865 490.675 138.04V121.437H493.7V145.499L493.769 145.431Z" fill="#231F20"/>
<path d="M535.71 143.728C534.507 144.416 533.235 144.931 531.86 145.275C530.485 145.619 529.076 145.791 527.563 145.791C523.988 145.791 521.169 144.725 519.072 142.628C516.974 140.531 515.943 137.541 515.943 133.691C515.943 129.841 517.112 126.713 519.415 124.409C521.719 122.106 524.744 120.938 528.388 120.938C529.763 120.938 531.001 121.075 532.17 121.35C533.304 121.625 534.473 122.072 535.642 122.656L534.404 125.131C533.407 124.616 532.445 124.238 531.516 124.031C530.588 123.825 529.522 123.688 528.388 123.688C525.706 123.688 523.472 124.547 521.753 126.266C520.034 127.984 519.175 130.391 519.175 133.519C519.175 136.647 519.931 139.088 521.478 140.703C523.025 142.319 525.156 143.144 527.907 143.144C528.8 143.144 529.66 143.041 530.451 142.869C531.241 142.697 531.963 142.422 532.616 142.078V135.547H527.391V132.831H535.71V143.831V143.728Z" fill="#231F20"/>
<path d="M566.512 94.8293C548.636 94.8293 534.988 81.5604 534.919 64.029C534.816 45.7413 548.395 32.1975 566.891 32.0943C584.939 31.9912 598.965 45.5695 599 63.204C599.068 80.9073 584.767 94.8293 566.512 94.8637V94.8293ZM566.65 40.1725C553.552 40.2757 543.96 50.3476 543.995 63.8915C544.029 77.0229 553.724 86.8542 566.65 86.8542C579.817 86.8542 590.061 76.2323 589.786 62.8259C589.546 50.0726 579.335 40.1038 566.65 40.2069V40.1725Z" fill="#1D2732"/>
<path d="M504.46 70.3848C507.417 74.5442 510.098 78.2568 512.745 82.0037C515.255 85.51 517.73 89.0506 520.515 92.9694C514.258 94.9976 510.201 93.8632 507.176 88.6038C504.666 84.2381 501.194 80.4224 498.719 76.0568C496.003 71.2442 492.394 69.8348 486.824 71.588V93.21H478.092V33.1563C485.655 33.1563 493.184 32.5376 500.61 33.2939C510.408 34.3251 517.214 41.1658 518.246 49.5534C519.449 59.1785 515.427 65.5723 504.46 70.3848ZM486.859 63.6129C494.972 62.3754 504.082 66.0192 508.276 56.7722C509.686 53.644 508.998 48.0409 506.97 45.1877C501.916 38.0033 493.941 40.7533 486.859 40.5127V63.6129Z" fill="#16222E"/>
<path d="M213.828 82.0738C204.134 98.2302 177.25 98.9864 165.183 83.6894C155.523 71.4518 156.554 52.236 167.452 41.339C178.488 30.3045 196.674 28.9982 209.015 38.6921C210.803 40.1015 212.763 43.814 212.109 45.2578C210.219 49.2797 207.331 48.2484 204.099 45.5671C194.542 37.6952 181.891 38.4859 173.915 47.0109C165.39 56.086 165.183 71.108 173.503 79.805C181.719 88.4332 194.886 89.327 204.34 81.2488C208.156 78.0175 210.665 77.88 213.863 82.0394L213.828 82.0738Z" fill="#1D2732"/>
<path d="M458.05 44.7381L456.021 46.9381C455.127 47.9006 453.615 48.0381 452.583 47.2475C451.311 46.2506 450.108 45.3224 448.836 44.463C438.798 37.588 425.459 39.2724 418.034 48.3131C410.402 57.6288 410.952 72.4446 419.237 80.7634C427.178 88.7041 440.414 89.0135 449.833 81.554C451.243 80.4196 452.927 78.7696 454.406 78.8384C455.953 78.9071 458.187 80.5571 458.634 81.9665C459.012 83.204 457.637 85.4384 456.434 86.6072C440.895 102.214 411.811 94.926 405.314 73.8883C401.154 60.3788 405.898 45.7349 417.037 37.8974C427.831 30.3004 443.68 30.4379 454.44 38.2755C455.574 39.1005 456.64 40.0974 457.878 41.2318C458.875 42.1599 458.943 43.7412 458.015 44.7381H458.05Z" fill="#1D2732"/>
<path d="M232.874 35.7109C232.736 36.7766 232.668 37.7391 232.668 38.736C232.633 42.8954 232.633 47.0548 232.633 51.2142C232.599 47.1579 232.564 43.1016 232.496 39.0453C232.461 37.6703 232.564 36.5703 232.874 35.7109Z" fill="#1D2732"/>
<path d="M263.676 32.9976C254.91 32.9976 246.728 33.2382 238.546 32.8944C246.143 32.8944 253.466 32.9288 260.788 32.8944C261.785 32.8944 262.817 32.8601 263.676 32.9976Z" fill="#1D2732"/>
<path d="M266.254 89.6099C266.358 91.4662 265.876 92.4631 265.051 93.0131C264.673 93.2537 264.192 93.4256 263.676 93.5287C254.91 93.4943 246.728 93.2881 238.546 93.5974H237.79C234.936 93.5974 233.458 92.7724 232.873 90.7787C232.736 89.7474 232.667 88.7505 232.667 87.788C232.633 83.6286 232.633 79.4348 232.633 75.2754C232.667 67.2659 232.667 59.2221 232.633 51.2127C232.633 47.0532 232.633 42.8938 232.667 38.7344C232.667 37.7375 232.736 36.775 232.873 35.7094C233.458 33.6813 234.971 32.8906 237.893 32.8906H238.546C246.728 33.2344 254.91 33.0281 263.676 32.9937C264.192 33.0969 264.673 33.2688 265.051 33.5094C265.876 34.0594 266.358 35.0563 266.254 36.8781C266.186 38.4594 265.704 39.3532 265.051 39.8688C264.501 40.3157 263.848 40.4875 263.092 40.5219H241.674V59.119C247.106 59.119 252.538 59.0846 257.935 59.1534C260.788 59.1534 264.157 58.2596 264.054 63.1065V63.4159C264.157 68.2284 260.788 67.3347 257.935 67.3691C252.538 67.3691 247.106 67.3691 241.674 67.3691V86.0005H263.023C263.779 86.0349 264.501 86.2068 265.051 86.6536C265.739 87.1693 266.186 88.063 266.254 89.6099Z" fill="#1D2732"/>
<path d="M320.641 94.7396L318.303 91.7834L299.945 60.1581L299.223 60.2956C297.71 71.33 296.198 82.3302 294.685 93.5021H286.469L293.757 46.9236L294.823 40.2204L294.891 39.8079L295.785 34.0328L302.248 45.4111V45.5829C307.336 55.0361 312.218 64.5581 317.203 74.0113C318.028 75.5582 319.025 77.002 320.365 79.202C321.466 77.1051 322.531 75.0082 323.563 72.9113C328.479 63.4237 333.154 54.2455 337.967 45.1361C338.173 44.7236 338.38 44.3454 338.586 43.9329V43.8642L343.055 34.0328L343.502 33.0703L343.708 33.9297H343.743L343.846 34.4109L345.633 41.2517V41.3548L345.771 42.2142L346.011 43.6923L346.63 47.7142L353.678 92.8146L353.815 93.674L345.771 94.9459L340.202 59.4706L340.098 58.8518C338.689 61.2924 337.658 63.0112 336.729 64.7644C333.876 70.2988 331.091 75.8676 328.204 81.402L325.075 87.1427L323.459 90.0646L323.391 90.1677" fill="#1D2732"/>
<path d="M383.999 33.6602H375.714V94.2295H383.999V33.6602Z" fill="#1D2732"/>
</svg>
