<svg width="600" height="222" viewBox="0 0 600 222" fill="none" xmlns="http://www.w3.org/2000/svg">
<g filter="url(#filter0_d_419_260)">
<path d="M151.876 52.7935C149.983 54.3973 147.288 54.5577 145.171 53.3068C96.829 24.8233 27.6357 54.7181 34.5326 120.795C39.0877 159.222 75.0477 185.877 113.895 178.916C125.315 176.863 136.029 173.143 145.332 166.278C150.945 162.108 153.095 166.342 155.693 169.422C158.965 173.303 154.987 175.035 152.71 176.767C124.641 197.969 83.2598 198.579 54.8703 178.307C-28.5337 111.236 56.9875 -11.166 150.625 42.0481C158.676 45.9293 156.463 48.9123 151.908 52.7935H151.876Z" fill="#16222E"/>
<path d="M126.501 139.247C91.9204 163.913 47.9408 124.428 74.7905 89.593C84.382 77.8853 97.1813 74.2928 111.841 77.5966C120.342 78.7513 136.798 87.6685 122.972 94.9497C121.721 95.5912 119.251 94.7252 117.808 93.8591C104.335 84.6854 82.8101 89.8817 79.474 107.042C74.4376 126.352 99.7476 141.941 115.594 130.169H115.979C118.129 129.046 122.427 127.539 123.839 128.405C126.469 130.137 130.928 132.062 128.939 137.001C128.169 137.803 127.367 138.541 126.533 139.279L126.501 139.247Z" fill="#16222E"/>
<path d="M137.729 158.337C83.8369 196.7 18.5892 133.029 55.0624 78.0506C72.0961 52.1333 109.692 46.8407 135.74 62.2693C144.273 65.7656 138.017 76.1261 130.415 72.9506C109.596 60.8259 82.7462 62.8787 66.4824 81.4507C43.7709 108.106 59.0402 152.467 93.8132 158.176C107.158 160.261 118.931 155.45 130.254 148.906C137.761 145.057 145.524 152.499 137.729 158.337Z" fill="#52B5D4"/>
<path d="M266.107 115.318C265.273 115.447 264.342 115.414 263.412 115.414C256.547 115.414 249.747 115.414 242.657 115.414C250.292 115.126 257.927 115.318 266.107 115.35V115.318Z" fill="#1D2732"/>
<path d="M265.497 108.298H263.027C263.861 108.298 264.727 108.234 265.497 108.298Z" fill="#1D2732"/>
<path d="M237.364 112.744C237.075 111.942 236.979 110.915 237.011 109.632C237.075 105.847 237.107 102.062 237.139 98.2773C237.139 102.159 237.139 106.072 237.171 109.953C237.171 110.851 237.236 111.781 237.364 112.744Z" fill="#1D2732"/>
<path d="M202.078 162.601C200.988 163.147 199.929 163.532 198.87 163.756C197.812 163.981 196.689 164.109 195.47 164.109C192.07 164.109 189.407 163.082 187.515 161.03C185.622 158.977 184.66 156.282 184.66 152.914C184.66 149.258 185.718 146.371 187.835 144.19C189.953 142.009 192.711 140.918 196.112 140.918C197.202 140.918 198.197 141.014 199.159 141.207C200.122 141.399 201.052 141.72 202.014 142.169L200.956 144.51C200.154 144.158 199.352 143.869 198.582 143.709C197.812 143.548 196.978 143.452 196.08 143.452C193.513 143.452 191.492 144.286 189.953 145.954C188.413 147.622 187.643 149.867 187.643 152.722C187.643 155.416 188.381 157.565 189.824 159.169C191.268 160.773 193.225 161.543 195.663 161.543C196.561 161.543 197.427 161.447 198.293 161.222C199.159 160.998 200.025 160.677 200.891 160.228L202.046 162.537L202.078 162.601Z" fill="#231F20"/>
<path d="M230.724 164.109C227.548 164.109 224.982 163.05 223.057 160.965C221.133 158.881 220.17 156.122 220.17 152.786C220.17 149.194 221.165 146.307 223.121 144.158C225.078 142.009 227.741 140.918 231.109 140.918C234.221 140.918 236.723 141.976 238.647 144.061C240.572 146.146 241.502 148.873 241.502 152.273C241.502 155.93 240.508 158.816 238.551 160.965C236.594 163.115 233.996 164.173 230.724 164.173V164.109ZM230.724 161.543C233.13 161.543 235.023 160.741 236.402 159.201C237.781 157.662 238.455 155.416 238.455 152.594C238.455 149.771 237.781 147.461 236.434 145.858C235.087 144.254 233.226 143.484 230.884 143.484C228.543 143.484 226.714 144.318 225.303 145.986C223.891 147.654 223.153 149.835 223.153 152.562C223.153 155.288 223.859 157.469 225.239 159.105C226.618 160.741 228.446 161.575 230.724 161.575V161.543Z" fill="#231F20"/>
<path d="M280.445 163.773H277.045L265.689 146.227C265.529 145.97 265.401 145.746 265.272 145.489C265.144 145.233 265.016 145.008 264.951 144.784H264.855C264.887 145.04 264.919 145.425 264.951 145.938C264.984 146.452 264.951 147.125 264.951 147.927V163.805H262.129V141.352H265.721L276.756 158.608C276.981 158.961 277.173 159.282 277.334 159.539C277.494 159.795 277.59 159.988 277.687 160.148H277.751C277.687 159.827 277.655 159.41 277.623 158.865C277.59 158.32 277.59 157.646 277.59 156.876V141.384H280.413V163.837L280.445 163.773Z" fill="#231F20"/>
<path d="M300.816 162.001L302.195 159.819C303.126 160.461 304.056 160.91 304.954 161.167C305.852 161.423 306.911 161.584 308.098 161.584C309.445 161.584 310.536 161.263 311.402 160.653C312.268 160.044 312.685 159.114 312.685 157.927C312.685 156.868 312.332 156.002 311.594 155.361C310.856 154.719 309.67 154.11 308.034 153.532C305.884 152.795 304.28 151.929 303.286 150.966C302.291 150.004 301.746 148.721 301.746 147.117C301.746 145.289 302.42 143.781 303.735 142.627C305.05 141.472 306.847 140.895 309.028 140.895C310.055 140.895 311.049 141.023 312.043 141.247C313.038 141.472 314.032 141.857 315.027 142.338L313.872 144.615C313.038 144.198 312.236 143.878 311.434 143.685C310.632 143.493 309.766 143.396 308.868 143.396C307.552 143.396 306.526 143.717 305.756 144.327C304.986 144.936 304.601 145.802 304.601 146.861C304.601 147.823 304.954 148.561 305.66 149.138C306.365 149.715 307.52 150.261 309.188 150.87C311.466 151.64 313.102 152.538 314.096 153.565C315.091 154.591 315.572 155.938 315.572 157.67C315.572 159.531 314.898 161.07 313.583 162.289C312.268 163.508 310.375 164.118 307.937 164.118C306.59 164.118 305.371 163.957 304.216 163.604C303.061 163.251 301.939 162.738 300.848 162.001H300.816Z" fill="#231F20"/>
<path d="M352.848 154.589C352.848 157.764 352.142 160.17 350.699 161.742C349.255 163.314 347.106 164.115 344.219 164.115C341.332 164.115 339.407 163.346 338.028 161.838C336.648 160.33 335.975 158.021 335.975 154.942V141.277H338.83V154.781C338.83 157.027 339.311 158.727 340.241 159.849C341.171 160.972 342.615 161.549 344.508 161.549C346.4 161.549 347.716 161.004 348.646 159.913C349.576 158.823 350.025 157.187 350.025 155.006V141.277H352.88V154.589H352.848Z" fill="#231F20"/>
<path d="M386.53 163.758H374.725V141.305H377.58V161.224H386.53V163.758Z" fill="#231F20"/>
<path d="M417.614 143.839H411.134V163.758H408.279V143.839H401.799V141.305H417.614V143.839Z" fill="#231F20"/>
<path d="M440.325 163.758H437.47V141.305H440.325V163.758Z" fill="#231F20"/>
<path d="M480.808 163.773H477.408L466.052 146.227C465.891 145.97 465.763 145.746 465.635 145.489C465.507 145.265 465.378 145.008 465.282 144.784H465.186C465.218 145.04 465.25 145.425 465.282 145.938C465.314 146.452 465.282 147.125 465.282 147.927V163.805H462.459V141.352H466.052L477.087 158.608C477.311 158.961 477.504 159.282 477.664 159.539C477.825 159.795 477.921 159.988 478.017 160.148H478.081C478.017 159.827 477.985 159.41 477.953 158.865C477.953 158.32 477.921 157.646 477.921 156.876V141.384H480.744V163.837L480.808 163.773Z" fill="#231F20"/>
<path d="M519.944 162.184C518.821 162.826 517.634 163.307 516.351 163.628C515.068 163.949 513.753 164.109 512.341 164.109C509.005 164.109 506.375 163.115 504.418 161.158C502.461 159.201 501.499 156.411 501.499 152.818C501.499 149.226 502.589 146.307 504.739 144.158C506.888 142.009 509.711 140.918 513.111 140.918C514.394 140.918 515.549 141.046 516.64 141.303C517.698 141.559 518.789 141.976 519.88 142.522L518.725 144.831C517.795 144.35 516.896 143.997 516.03 143.805C515.164 143.612 514.17 143.484 513.111 143.484C510.609 143.484 508.524 144.286 506.92 145.89C505.316 147.494 504.514 149.739 504.514 152.658C504.514 155.577 505.22 157.854 506.663 159.362C508.107 160.869 510.096 161.639 512.662 161.639C513.496 161.639 514.298 161.543 515.036 161.382C515.774 161.222 516.447 160.965 517.057 160.645V154.55H512.181V152.016H519.944V162.281V162.184Z" fill="#231F20"/>
<path d="M548.685 116.555C532.005 116.555 519.27 104.174 519.205 87.8148C519.109 70.7503 531.78 58.1124 549.038 58.0162C565.88 57.9199 578.968 70.59 579 87.0449C579.064 103.564 565.719 116.555 548.685 116.587V116.555ZM548.814 65.554C536.592 65.6502 527.642 75.0485 527.674 87.6864C527.706 99.9395 536.752 109.113 548.814 109.113C561.1 109.113 570.659 99.2017 570.403 86.6921C570.178 74.7919 560.651 65.4899 548.814 65.5861V65.554Z" fill="#1D2732"/>
<path d="M490.784 93.7459C493.543 97.6271 496.045 101.091 498.515 104.588C500.857 107.859 503.166 111.163 505.765 114.82C499.926 116.712 496.141 115.654 493.318 110.746C490.976 106.673 487.736 103.112 485.427 99.0384C482.893 94.5478 479.524 93.2327 474.328 94.8685V115.044H466.18V59.0076C473.237 59.0076 480.262 58.4302 487.191 59.1359C496.333 60.0982 502.685 66.4813 503.647 74.3078C504.77 83.2891 501.017 89.2552 490.784 93.7459ZM474.36 87.4269C481.93 86.2722 490.431 89.6722 494.345 81.0438C495.66 78.1249 495.018 72.8965 493.126 70.2342C488.41 63.5303 480.968 66.0964 474.36 65.8718V87.4269Z" fill="#16222E"/>
<path d="M219.592 104.654C210.546 119.73 185.461 120.435 174.201 106.161C165.187 94.7423 166.149 76.8119 176.318 66.6438C186.616 56.3474 203.585 55.1285 215.101 64.1739C216.769 65.489 218.598 68.9533 217.988 70.3004C216.224 74.0533 213.529 73.091 210.514 70.5891C201.596 63.2437 189.791 63.9815 182.349 71.9363C174.394 80.4044 174.201 94.4216 181.964 102.537C189.631 110.588 201.917 111.422 210.739 103.884C214.299 100.869 216.641 100.741 219.624 104.622L219.592 104.654Z" fill="#1D2732"/>
<path d="M447.478 69.816L445.585 71.8689C444.751 72.767 443.34 72.8953 442.377 72.1576C441.19 71.2274 440.068 70.3613 438.881 69.5594C429.514 63.1442 417.067 64.7159 410.138 73.1519C403.017 81.8445 403.53 95.6693 411.261 103.432C418.671 110.841 431.021 111.13 439.811 104.169C441.126 103.111 442.698 101.571 444.077 101.635C445.521 101.7 447.606 103.239 448.023 104.554C448.376 105.709 447.093 107.794 445.97 108.885C431.471 123.447 404.332 116.647 398.269 97.0165C394.388 84.4106 398.815 70.7462 409.208 63.4329C419.281 56.3441 434.069 56.4724 444.109 63.7857C445.168 64.5556 446.162 65.4858 447.317 66.5443C448.248 67.4103 448.312 68.8858 447.446 69.816H447.478Z" fill="#1D2732"/>
<path d="M237.364 61.3906C237.236 62.385 237.171 63.2831 237.171 64.2133C237.139 68.0945 237.139 71.9757 237.139 75.8569C237.107 72.0719 237.075 68.2869 237.011 64.502C236.979 63.2189 237.075 62.1925 237.364 61.3906Z" fill="#1D2732"/>
<path d="M266.106 58.8576C257.926 58.8576 250.291 59.0821 242.656 58.7614C249.746 58.7614 256.578 58.7935 263.411 58.7614C264.341 58.7614 265.304 58.7293 266.106 58.8576Z" fill="#1D2732"/>
<path d="M268.512 111.683C268.608 113.415 268.159 114.345 267.389 114.859C267.036 115.083 266.587 115.244 266.106 115.34C257.926 115.308 250.291 115.115 242.656 115.404H241.951C239.288 115.404 237.909 114.634 237.364 112.774C237.235 111.811 237.171 110.881 237.171 109.983C237.139 106.102 237.139 102.189 237.139 98.3075C237.171 90.8338 237.171 83.328 237.139 75.8543C237.139 71.9731 237.139 68.0919 237.171 64.2107C237.171 63.2805 237.235 62.3824 237.364 61.388C237.909 59.4956 239.32 58.7578 242.047 58.7578H242.656C250.291 59.0786 257.926 58.8861 266.106 58.854C266.587 58.9503 267.036 59.1106 267.389 59.3352C268.159 59.8484 268.608 60.7786 268.512 62.4786C268.448 63.9541 267.998 64.7881 267.389 65.2692C266.876 65.6862 266.266 65.8466 265.56 65.8787H245.576V83.2318C250.644 83.2318 255.712 83.1997 260.749 83.2639C263.411 83.2639 266.555 82.4299 266.459 86.9526V87.2413C266.555 91.7319 263.411 90.8979 260.749 90.93C255.712 90.93 250.644 90.93 245.576 90.93V108.315H265.496C266.202 108.347 266.876 108.508 267.389 108.925C268.031 109.406 268.448 110.24 268.512 111.683Z" fill="#1D2732"/>
<path d="M319.26 116.47L317.078 113.712L299.949 84.2017L299.275 84.3299C297.863 94.6263 296.452 104.891 295.041 115.315H287.374L294.174 71.8524L295.169 65.5976L295.233 65.2127L296.067 59.8239L302.098 70.4411V70.6014C306.845 79.4223 311.401 88.3074 316.052 97.1283C316.822 98.5717 317.752 99.9189 319.003 101.972C320.03 100.015 321.024 98.0585 321.986 96.1018C326.574 87.2489 330.936 78.6846 335.427 70.1845C335.62 69.7995 335.812 69.4467 336.005 69.0618V68.9976L340.175 59.8239L340.592 58.9258L340.784 59.7277H340.817L340.913 60.1767L342.581 66.5599V66.6561L342.709 67.458L342.934 68.8373L343.511 72.5902L350.087 114.674L350.216 115.476L342.709 116.663L337.513 83.5601L337.416 82.9828C336.101 85.2602 335.139 86.864 334.273 88.4998C331.61 93.6641 329.012 98.8604 326.317 104.025L323.398 109.381L321.89 112.108L321.826 112.204" fill="#1D2732"/>
<path d="M378.381 59.4766H370.65V115.994H378.381V59.4766Z" fill="#1D2732"/>
</g>
<defs>
<filter id="filter0_d_419_260" x="20.9999" y="29" width="566" height="174.102" filterUnits="userSpaceOnUse" color-interpolation-filters="sRGB">
<feFlood flood-opacity="0" result="BackgroundImageFix"/>
<feColorMatrix in="SourceAlpha" type="matrix" values="0 0 0 0 0 0 0 0 0 0 0 0 0 0 0 0 0 0 127 0" result="hardAlpha"/>
<feOffset dx="4" dy="6"/>
<feGaussianBlur stdDeviation="2"/>
<feComposite in2="hardAlpha" operator="out"/>
<feColorMatrix type="matrix" values="0 0 0 0 0 0 0 0 0 0 0 0 0 0 0 0 0 0 0.25 0"/>
<feBlend mode="normal" in2="BackgroundImageFix" result="effect1_dropShadow_419_260"/>
<feBlend mode="normal" in="SourceGraphic" in2="effect1_dropShadow_419_260" result="shape"/>
</filter>
</defs>
</svg>
