<svg width="1080" height="1080" viewBox="0 0 1080 1080" fill="none" xmlns="http://www.w3.org/2000/svg">
<g filter="url(#filter0_d_331_125)">
<path d="M634.294 331.342C631.164 333.994 626.709 334.259 623.208 332.191C543.275 285.094 428.866 334.524 440.27 443.78C447.801 507.319 507.26 551.392 571.493 539.883C590.376 536.489 608.092 530.337 623.474 518.987C632.756 512.092 636.309 519.093 640.606 524.184C646.016 530.602 639.439 533.466 635.673 536.33C589.262 571.387 520.839 572.395 473.898 538.876C335.991 427.975 477.398 225.586 632.225 313.575C645.539 319.992 641.879 324.925 634.347 331.342H634.294Z" fill="#16222E"/>
<path d="M592.338 474.279C535.16 515.065 462.441 449.776 506.836 392.178C522.695 372.82 543.859 366.879 568.099 372.342C582.154 374.252 609.364 388.996 586.504 401.035C584.435 402.096 580.351 400.664 577.964 399.232C555.687 384.063 520.096 392.655 514.58 421.03C506.253 452.958 548.102 478.734 574.304 459.27H574.941C578.495 457.413 585.602 454.921 587.936 456.353C592.285 459.217 599.658 462.399 596.369 470.567C595.096 471.893 593.77 473.112 592.391 474.332L592.338 474.279Z" fill="#16222E"/>
<path d="M610.903 505.834C521.794 569.267 413.908 463.988 474.216 373.083C502.38 330.229 564.545 321.478 607.614 346.989C621.723 352.77 611.38 369.901 598.809 364.65C564.386 344.602 519.99 347.996 493.098 378.705C455.545 422.779 480.793 496.129 538.289 505.569C560.354 509.017 579.82 501.061 598.544 490.242C610.956 483.877 623.792 496.182 610.903 505.834Z" fill="#52B5D4"/>
<path d="M362.183 708.092C360.804 708.304 359.266 708.251 357.728 708.251C346.377 708.251 335.132 708.251 323.41 708.251C336.034 707.774 348.658 708.092 362.183 708.145V708.092Z" fill="#1D2732"/>
<path d="M361.176 696.477H357.091C358.471 696.477 359.903 696.371 361.176 696.477Z" fill="#1D2732"/>
<path d="M314.659 703.842C314.181 702.516 314.022 700.818 314.075 698.697C314.181 692.439 314.234 686.18 314.287 679.922C314.287 686.339 314.287 692.81 314.34 699.227C314.34 700.712 314.446 702.25 314.659 703.842Z" fill="#1D2732"/>
<path d="M291.057 786.267C289.253 787.169 287.503 787.805 285.753 788.176C284.002 788.548 282.146 788.76 280.13 788.76C274.508 788.76 270.106 787.063 266.976 783.668C263.847 780.274 262.255 775.819 262.255 770.25C262.255 764.204 264.006 759.43 267.507 755.824C271.007 752.217 275.569 750.414 281.191 750.414C282.994 750.414 284.639 750.573 286.23 750.891C287.821 751.21 289.359 751.74 290.951 752.483L289.2 756.354C287.874 755.771 286.548 755.293 285.275 755.028C284.002 754.763 282.623 754.604 281.138 754.604C276.895 754.604 273.553 755.983 271.007 758.741C268.461 761.499 267.188 765.211 267.188 769.932C267.188 774.387 268.408 777.94 270.795 780.592C273.182 783.244 276.417 784.517 280.449 784.517C281.934 784.517 283.366 784.358 284.798 783.986C286.23 783.615 287.662 783.085 289.094 782.342L291.004 786.161L291.057 786.267Z" fill="#231F20"/>
<path d="M338.423 788.76C333.171 788.76 328.928 787.01 325.746 783.562C322.563 780.115 320.972 775.554 320.972 770.038C320.972 764.098 322.616 759.324 325.852 755.771C329.087 752.217 333.49 750.414 339.059 750.414C344.204 750.414 348.341 752.164 351.524 755.612C354.706 759.059 356.244 763.567 356.244 769.189C356.244 775.235 354.6 780.009 351.365 783.562C348.129 787.116 343.833 788.866 338.423 788.866V788.76ZM338.423 784.517C342.401 784.517 345.53 783.191 347.811 780.645C350.092 778.099 351.205 774.387 351.205 769.72C351.205 765.052 350.092 761.234 347.864 758.582C345.636 755.93 342.56 754.657 338.688 754.657C334.816 754.657 331.792 756.036 329.459 758.794C327.125 761.552 325.905 765.158 325.905 769.667C325.905 774.175 327.072 777.781 329.353 780.486C331.633 783.191 334.657 784.57 338.423 784.57V784.517Z" fill="#231F20"/>
<path d="M420.636 788.174H415.014L396.237 759.163C395.972 758.739 395.76 758.368 395.548 757.943C395.335 757.519 395.123 757.148 395.017 756.777H394.858C394.911 757.201 394.964 757.837 395.017 758.686C395.07 759.534 395.017 760.648 395.017 761.974V788.227H390.35V751.102H396.29L414.536 779.635C414.908 780.219 415.226 780.749 415.491 781.174C415.756 781.598 415.915 781.916 416.075 782.181H416.181C416.075 781.651 416.022 780.961 415.969 780.06C415.915 779.158 415.915 778.044 415.915 776.771V751.155H420.583V788.28L420.636 788.174Z" fill="#231F20"/>
<path d="M454.317 785.258L456.598 781.651C458.136 782.712 459.674 783.454 461.16 783.879C462.645 784.303 464.395 784.568 466.358 784.568C468.585 784.568 470.389 784.038 471.821 783.03C473.253 782.022 473.943 780.484 473.943 778.522C473.943 776.772 473.359 775.34 472.139 774.279C470.919 773.218 468.957 772.211 466.252 771.256C462.698 770.036 460.046 768.604 458.402 767.013C456.757 765.422 455.855 763.3 455.855 760.649C455.855 757.625 456.969 755.133 459.144 753.223C461.319 751.314 464.289 750.359 467.896 750.359C469.593 750.359 471.238 750.571 472.882 750.943C474.526 751.314 476.17 751.95 477.815 752.746L475.905 756.512C474.526 755.822 473.2 755.292 471.874 754.974C470.548 754.655 469.116 754.496 467.631 754.496C465.456 754.496 463.759 755.027 462.486 756.034C461.213 757.042 460.576 758.474 460.576 760.224C460.576 761.815 461.16 763.035 462.327 763.99C463.493 764.945 465.403 765.846 468.161 766.854C471.927 768.127 474.632 769.612 476.276 771.309C477.921 773.006 478.716 775.234 478.716 778.098C478.716 781.174 477.602 783.72 475.428 785.735C473.253 787.75 470.124 788.758 466.093 788.758C463.865 788.758 461.849 788.493 459.94 787.91C458.03 787.326 456.174 786.478 454.37 785.258H454.317Z" fill="#231F20"/>
<path d="M540.35 773.01C540.35 778.261 539.183 782.239 536.796 784.838C534.409 787.436 530.856 788.762 526.082 788.762C521.308 788.762 518.126 787.489 515.845 784.997C513.564 782.504 512.45 778.685 512.45 773.594V751H517.171V773.329C517.171 777.041 517.967 779.852 519.505 781.708C521.043 783.565 523.43 784.519 526.559 784.519C529.689 784.519 531.863 783.618 533.402 781.814C534.94 780.011 535.682 777.306 535.682 773.7V751H540.403V773.01H540.35Z" fill="#231F20"/>
<path d="M596.043 788.173H576.524V751.047H581.244V783.983H596.043V788.173Z" fill="#231F20"/>
<path d="M647.44 755.237H636.726V788.173H632.005V755.237H621.291V751.047H647.44V755.237Z" fill="#231F20"/>
<path d="M684.993 788.173H680.272V751.047H684.993V788.173Z" fill="#231F20"/>
<path d="M751.931 788.174H746.309L727.532 759.163C727.267 758.739 727.055 758.368 726.843 757.943C726.63 757.572 726.418 757.148 726.259 756.777H726.1C726.153 757.201 726.206 757.837 726.259 758.686C726.312 759.534 726.259 760.648 726.259 761.974V788.227H721.591V751.102H727.532L745.778 779.635C746.149 780.219 746.468 780.749 746.733 781.174C746.998 781.598 747.157 781.916 747.316 782.181H747.422C747.316 781.651 747.263 780.961 747.21 780.06C747.21 779.158 747.157 778.044 747.157 776.771V751.155H751.825V788.28L751.931 788.174Z" fill="#231F20"/>
<path d="M816.641 785.578C814.785 786.638 812.822 787.434 810.701 787.964C808.579 788.495 806.404 788.76 804.07 788.76C798.554 788.76 794.205 787.116 790.969 783.88C787.734 780.645 786.142 776.031 786.142 770.091C786.142 764.151 787.946 759.324 791.499 755.771C795.053 752.217 799.721 750.414 805.343 750.414C807.465 750.414 809.374 750.626 811.178 751.051C812.928 751.475 814.732 752.164 816.535 753.066L814.625 756.885C813.087 756.089 811.602 755.506 810.17 755.187C808.738 754.869 807.094 754.657 805.343 754.657C801.206 754.657 797.758 755.983 795.106 758.635C792.454 761.287 791.128 764.999 791.128 769.826C791.128 774.652 792.295 778.418 794.682 780.91C797.069 783.403 800.357 784.676 804.601 784.676C805.98 784.676 807.306 784.517 808.526 784.252C809.746 783.986 810.86 783.562 811.867 783.032V772.955H803.805V768.765H816.641V785.737V785.578Z" fill="#231F20"/>
<path d="M829.423 710.106C801.841 710.106 780.784 689.634 780.678 662.585C780.519 634.369 801.47 613.473 830.006 613.313C857.853 613.154 879.493 634.104 879.546 661.312C879.652 688.626 857.587 710.106 829.423 710.159V710.106ZM829.635 625.777C809.426 625.936 794.628 641.476 794.681 662.373C794.734 682.633 809.691 697.801 829.635 697.801C849.949 697.801 865.756 681.413 865.331 660.728C864.96 641.052 849.207 625.671 829.635 625.83V625.777Z" fill="#1D2732"/>
<path d="M733.683 672.401C738.245 678.818 742.382 684.546 746.466 690.327C750.338 695.737 754.157 701.2 758.453 707.246C748.8 710.375 742.541 708.625 737.873 700.51C734.001 693.774 728.644 687.887 724.825 681.152C720.635 673.726 715.066 671.552 706.473 674.257V707.617H693.001V614.962C704.67 614.962 716.286 614.007 727.743 615.174C742.859 616.765 753.361 627.319 754.953 640.26C756.809 655.111 750.603 664.975 733.683 672.401ZM706.526 661.952C719.044 660.043 733.1 665.665 739.571 651.398C741.745 646.572 740.685 637.927 737.555 633.524C729.758 622.44 717.453 626.683 706.526 626.311V661.952Z" fill="#16222E"/>
<path d="M285.274 690.43C270.316 715.357 228.838 716.524 210.221 692.923C195.316 674.042 196.907 644.394 213.721 627.581C230.748 610.556 258.806 608.541 277.848 623.497C280.606 625.672 283.63 631.4 282.622 633.627C279.704 639.833 275.249 638.242 270.263 634.105C255.518 621.959 235.999 623.179 223.693 636.332C210.539 650.334 210.221 673.511 223.057 686.93C235.733 700.242 256.048 701.621 270.634 689.157C276.522 684.172 280.394 683.96 285.327 690.377L285.274 690.43Z" fill="#1D2732"/>
<path d="M662.078 632.828L658.948 636.222C657.569 637.707 655.236 637.92 653.644 636.7C651.682 635.162 649.825 633.73 647.863 632.404C632.375 621.796 611.795 624.395 600.338 638.344C588.563 652.717 589.412 675.576 602.194 688.411C614.447 700.662 634.868 701.14 649.401 689.631C651.576 687.88 654.175 685.335 656.456 685.441C658.842 685.547 662.29 688.093 662.98 690.267C663.563 692.176 661.441 695.624 659.585 697.427C635.61 721.506 590.738 710.262 580.713 677.803C574.295 656.96 581.614 634.366 598.8 622.274C615.455 610.553 639.907 610.765 656.508 622.857C658.259 624.13 659.903 625.668 661.813 627.418C663.351 628.85 663.457 631.29 662.025 632.828H662.078Z" fill="#1D2732"/>
<path d="M314.659 618.883C314.446 620.527 314.34 622.012 314.34 623.55C314.287 629.968 314.287 636.385 314.287 642.802C314.234 636.544 314.181 630.286 314.075 624.027C314.022 621.906 314.181 620.209 314.659 618.883Z" fill="#1D2732"/>
<path d="M362.183 614.696C348.658 614.696 336.034 615.068 323.41 614.537C335.132 614.537 346.43 614.59 357.728 614.537C359.266 614.537 360.857 614.484 362.183 614.696Z" fill="#1D2732"/>
<path d="M366.162 702.042C366.321 704.906 365.578 706.444 364.305 707.293C363.722 707.664 362.979 707.929 362.183 708.088C348.658 708.035 336.034 707.717 323.41 708.194H322.244C317.841 708.194 315.56 706.922 314.659 703.845C314.447 702.254 314.34 700.716 314.34 699.231C314.287 692.814 314.287 686.343 314.287 679.926C314.34 667.568 314.34 655.158 314.287 642.8C314.287 636.382 314.287 629.965 314.34 623.548C314.34 622.009 314.447 620.524 314.659 618.88C315.56 615.751 317.894 614.531 322.403 614.531H323.41C336.034 615.062 348.658 614.743 362.183 614.69C362.979 614.849 363.722 615.115 364.305 615.486C365.578 616.335 366.321 617.873 366.162 620.684C366.055 623.123 365.313 624.502 364.305 625.298C363.456 625.987 362.449 626.252 361.282 626.305H328.237V654.998C336.618 654.998 344.998 654.945 353.326 655.051C357.728 655.051 362.926 653.672 362.767 661.151V661.628C362.926 669.053 357.728 667.674 353.326 667.727C344.998 667.727 336.618 667.727 328.237 667.727V696.473H361.176C362.343 696.526 363.456 696.792 364.305 697.481C365.366 698.277 366.055 699.656 366.162 702.042Z" fill="#1D2732"/>
<path d="M450.073 709.945L446.466 705.384L418.142 656.59L417.028 656.802C414.694 673.827 412.36 690.799 410.026 708.036H397.35L408.594 636.171L410.239 625.829L410.345 625.192L411.724 616.282L421.696 633.837V634.102C429.546 648.687 437.077 663.379 444.768 677.964C446.041 680.351 447.58 682.578 449.648 685.972C451.345 682.737 452.99 679.502 454.581 676.267C462.166 661.629 469.379 647.468 476.805 633.413C477.123 632.776 477.442 632.193 477.76 631.557V631.45L484.655 616.282L485.345 614.797L485.663 616.123H485.716L485.875 616.865L488.633 627.42V627.579L488.846 628.905L489.217 631.185L490.172 637.391L501.045 706.975L501.257 708.301L488.846 710.263L480.253 655.529L480.094 654.575C477.919 658.34 476.328 660.992 474.896 663.697C470.493 672.236 466.197 680.828 461.741 689.367L456.915 698.224L454.422 702.732L454.316 702.891" fill="#1D2732"/>
<path d="M547.827 615.758H535.044V709.209H547.827V615.758Z" fill="#1D2732"/>
</g>
<defs>
<filter id="filter0_d_331_125" x="200" y="292" width="691.547" height="510.867" filterUnits="userSpaceOnUse" color-interpolation-filters="sRGB">
<feFlood flood-opacity="0" result="BackgroundImageFix"/>
<feColorMatrix in="SourceAlpha" type="matrix" values="0 0 0 0 0 0 0 0 0 0 0 0 0 0 0 0 0 0 127 0" result="hardAlpha"/>
<feOffset dx="8" dy="10"/>
<feGaussianBlur stdDeviation="2"/>
<feComposite in2="hardAlpha" operator="out"/>
<feColorMatrix type="matrix" values="0 0 0 0 0 0 0 0 0 0 0 0 0 0 0 0 0 0 0.25 0"/>
<feBlend mode="normal" in2="BackgroundImageFix" result="effect1_dropShadow_331_125"/>
<feBlend mode="normal" in="SourceGraphic" in2="effect1_dropShadow_331_125" result="shape"/>
</filter>
</defs>
</svg>
